<svg width="20" height="17" viewBox="0 0 20 17" fill="none" xmlns="http://www.w3.org/2000/svg">
<path d="M19.8879 2.6556C19.1421 2.98548 18.3548 3.19166 17.5262 3.31536C18.3548 2.82054 19.0178 2.03707 19.3078 1.08866C18.5206 1.54225 17.6505 1.87213 16.6975 2.07831C15.9517 1.29484 14.8745 0.800018 13.7143 0.800018C11.4769 0.800018 9.6539 2.61436 9.6539 4.84106C9.6539 5.17094 9.69533 5.45959 9.7782 5.74824C6.42212 5.5833 3.39751 3.97513 1.36729 1.50102C1.03583 2.11954 0.828661 2.77931 0.828661 3.52154C0.828661 4.92353 1.53302 6.16059 2.65171 6.90282C1.98879 6.86159 1.36729 6.69665 0.787228 6.408V6.44923C0.787228 8.42852 2.19595 10.0779 4.06044 10.449C3.72897 10.5315 3.35608 10.5727 2.98318 10.5727C2.73458 10.5727 2.44455 10.5315 2.19595 10.4903C2.73458 12.0985 4.22617 13.2943 6.00779 13.2943C4.59907 14.3664 2.85888 15.0261 0.95296 15.0261C0.621495 15.0261 0.290031 15.0261 0 14.9849C1.82305 16.1395 3.93614 16.7993 6.25639 16.7993C13.7558 16.7993 17.8576 10.614 17.8576 5.25341C17.8576 5.08847 17.8576 4.8823 17.8576 4.71736C18.6449 4.1813 19.3492 3.4803 19.8879 2.6556Z" fill="#131318"/>
</svg>
