<svg width="24" height="23" viewBox="0 0 24 23" fill="none" xmlns="http://www.w3.org/2000/svg">
<path fill-rule="evenodd" clip-rule="evenodd" d="M11.7883 0C5.39702 0 0.255127 5.11733 0.255127 11.4781C0.255127 16.5476 3.57092 20.8519 8.13615 22.3823C8.71281 22.478 8.90503 22.1432 8.90503 21.8084C8.90503 21.5215 8.90503 20.8041 8.90503 19.8476C5.68535 20.565 5.01258 18.3172 5.01258 18.3172C4.48397 16.9781 3.71509 16.6433 3.71509 16.6433C2.65788 15.9259 3.8112 15.9259 3.8112 15.9259C4.96452 16.0216 5.58924 17.1215 5.58924 17.1215C6.59839 18.8911 8.28032 18.365 8.95309 18.0781C9.0492 17.3128 9.33753 16.8346 9.67391 16.5476C7.127 16.2607 4.43591 15.2563 4.43591 10.8564C4.43591 9.61293 4.86841 8.56077 5.63729 7.79556C5.54118 7.50861 5.10869 6.3608 5.7334 4.73473C5.7334 4.73473 6.6945 4.44777 8.90503 5.93037C9.81808 5.69124 10.8272 5.54776 11.7883 5.54776C12.7494 5.54776 13.7586 5.69124 14.6716 5.93037C16.8822 4.44777 17.8433 4.73473 17.8433 4.73473C18.468 6.31297 18.0835 7.46078 17.9394 7.79556C18.6602 8.60859 19.1408 9.61293 19.1408 10.8564C19.1408 15.2563 16.4497 16.2129 13.8547 16.4998C14.2872 16.8346 14.6236 17.552 14.6236 18.6041C14.6236 20.1345 14.6236 21.378 14.6236 21.7606C14.6236 22.0476 14.8158 22.4302 15.4405 22.3345C20.0057 20.8519 23.3215 16.5476 23.3215 11.4781C23.3215 5.11733 18.1797 0 11.7883 0Z" fill="#131318"/>
</svg>
