<svg width="24" height="26" viewBox="0 0 24 26" fill="none" xmlns="http://www.w3.org/2000/svg">
<path d="M12 7.34551C11.8011 7.34551 11.6103 7.2609 11.4697 7.1103C11.329 6.9597 11.25 6.75543 11.25 6.54245C11.25 6.32946 11.329 6.1252 11.4697 5.97459C11.6103 5.82399 11.8011 5.73938 12 5.73938C12.1989 5.73938 12.3897 5.82399 12.5303 5.97459C12.671 6.1252 12.75 6.32946 12.75 6.54245C12.75 6.75543 12.671 6.9597 12.5303 7.1103C12.3897 7.2609 12.1989 7.34551 12 7.34551ZM12 13.77C11.8011 13.77 11.6103 13.6854 11.4697 13.5348C11.329 13.3842 11.25 13.18 11.25 12.967C11.25 12.754 11.329 12.5497 11.4697 12.3991C11.6103 12.2485 11.8011 12.1639 12 12.1639C12.1989 12.1639 12.3897 12.2485 12.5303 12.3991C12.671 12.5497 12.75 12.754 12.75 12.967C12.75 13.18 12.671 13.3842 12.5303 13.5348C12.3897 13.6854 12.1989 13.77 12 13.77ZM12 20.1946C11.8011 20.1946 11.6103 20.11 11.4697 19.9594C11.329 19.8087 11.25 19.6045 11.25 19.3915C11.25 19.1785 11.329 18.9743 11.4697 18.8236C11.6103 18.673 11.8011 18.5884 12 18.5884C12.1989 18.5884 12.3897 18.673 12.5303 18.8236C12.671 18.9743 12.75 19.1785 12.75 19.3915C12.75 19.6045 12.671 19.8087 12.5303 19.9594C12.3897 20.11 12.1989 20.1946 12 20.1946Z" stroke="#F3F3F3" stroke-width="1.5" stroke-linecap="round" stroke-linejoin="round"/>
</svg>
