<svg width="68" height="68" viewBox="0 0 68 68" fill="none" xmlns="http://www.w3.org/2000/svg">
<g clip-path="url(#clip0_8_2314)">
<path d="M67.2363 67.7326H0.817235C0.526125 67.7326 0.2901 67.4977 0.2901 67.2079V17.4519C0.2901 17.1622 0.526125 16.9272 0.817235 16.9272H67.2363C67.5274 16.9272 67.7634 17.1622 67.7634 17.4519V67.2079C67.7634 67.4977 67.5274 67.7326 67.2363 67.7326Z" fill="#F3F3F3"/>
<path d="M63.6906 16.9272V67.7326H67.2363C67.5274 67.7326 67.7634 67.4977 67.7634 67.2079V17.4519C67.7634 17.1622 67.5274 16.9272 67.2363 16.9272H63.6906Z" fill="#E4E4E4"/>
<path d="M4.36285 63.1543V21.5054C4.36285 21.2156 4.59888 20.9807 4.88999 20.9807H63.1633C63.4544 20.9807 63.6905 21.2156 63.6905 21.5054V63.1541C63.6905 63.4439 63.4544 63.6788 63.1633 63.6788H4.88999C4.59888 63.6789 4.36285 63.444 4.36285 63.1543Z" fill="#29CEF6"/>
<path d="M59.6177 20.9807V63.6788H63.1634C63.4545 63.6788 63.6905 63.4439 63.6905 63.1541V21.5054C63.6905 21.2156 63.4545 20.9807 63.1634 20.9807H59.6177Z" fill="#22B5ED"/>
<path d="M63.6907 33.5265C61.1812 32.5858 58.5911 31.8679 56.2248 31.2275C34.2235 27.7001 37.225 43.202 23.8112 48.2626C18.5638 49.6182 12.7312 46.8012 7.63602 48.5995C6.32134 49.1893 5.23887 49.9032 4.36304 50.7069V63.1543C4.36304 63.4441 4.59906 63.679 4.89017 63.679H63.1635C63.4546 63.679 63.6907 63.4441 63.6907 63.1543V33.5265Z" fill="#FFD54F"/>
<path d="M59.6177 32.1802V63.679H63.1634C63.4545 63.679 63.6905 63.4441 63.6905 63.1543V33.5266C62.3403 33.0203 60.9675 32.58 59.6177 32.1802Z" fill="#FFC328"/>
<path d="M4.36285 21.5054V36.1054C6.93593 35.9085 9.54552 36.132 12.1125 36.2679C28.6974 37.8895 27.1231 26.4744 38.957 20.9807H4.88999C4.59888 20.9807 4.36285 21.2156 4.36285 21.5054Z" fill="#9CCC65"/>
<path d="M34.8842 20.9807C24.3896 25.8527 24.4381 35.3799 13.017 36.3436C28.6417 37.4657 27.3432 26.3724 38.9572 20.9807H34.8842Z" fill="#8BC34A"/>
<path d="M61.2399 15.3911C61.2399 24.3969 54.9182 26.6324 51.8356 32.0405C48.7531 37.4486 48.9094 41.1139 46.4419 41.1139C44.063 41.1139 44.0605 37.1794 41.0481 32.0405C37.8113 26.5189 31.6439 24.3969 31.6439 15.3911C31.644 7.20984 38.2693 0.577637 46.442 0.577637C54.6147 0.577637 61.2399 7.20984 61.2399 15.3911Z" fill="#F75632"/>
<path d="M46.442 0.577637C45.7509 0.577637 45.0714 0.626167 44.4055 0.717849C51.6144 1.71127 57.1671 7.90146 57.1671 15.3909C57.1671 24.3968 50.8454 26.6323 47.7628 32.0404C45.9042 35.3011 45.2228 37.9265 44.4341 39.4988C44.9556 40.5212 45.5203 41.1138 46.442 41.1138C48.9094 41.1138 48.7531 37.4485 51.8356 32.0404C54.9183 26.6323 61.2398 24.3968 61.2398 15.3909C61.2398 7.20984 54.6147 0.577637 46.442 0.577637Z" fill="#E33629"/>
<path d="M47.8397 45.5624L49.3058 44.1032C49.6918 43.7191 49.6918 43.0963 49.3056 42.7121C48.9198 42.3281 48.2939 42.328 47.9079 42.7123L46.442 44.1714L44.976 42.7123C44.59 42.328 43.9642 42.3281 43.5783 42.7121C43.1922 43.0964 43.1922 43.7192 43.5782 44.1032L45.0443 45.5624L43.5782 47.0216C43.1922 47.4058 43.1922 48.0285 43.5783 48.4127C43.7712 48.6047 44.0243 48.7007 44.2772 48.7007C44.5301 48.7007 44.7831 48.6047 44.9761 48.4126L46.4421 46.9534L47.9081 48.4126C48.1011 48.6047 48.354 48.7007 48.607 48.7007C48.8599 48.7007 49.113 48.6047 49.3059 48.4127C49.692 48.0284 49.692 47.4056 49.306 47.0216L47.8397 45.5624Z" fill="#546E7A"/>
<path d="M47.1181 50.1362C46.6388 49.8762 46.0385 50.0525 45.7774 50.5298C45.6529 50.7575 45.5281 50.9812 45.4022 51.2007C45.1316 51.6725 45.2965 52.2733 45.7707 52.5426C45.9253 52.6303 46.0936 52.672 46.2598 52.672C46.6029 52.672 46.9367 52.4939 47.1191 52.1758C47.2514 51.9451 47.3826 51.7098 47.5135 51.4703C47.7745 50.9933 47.5975 50.3959 47.1181 50.1362Z" fill="#546E7A"/>
<path d="M23.9022 54.5897C23.3943 54.5854 22.8785 54.5913 22.3634 54.6086C21.8178 54.6273 21.3906 55.0823 21.4092 55.6253C21.4275 56.157 21.866 56.5755 22.3963 56.5755C22.4077 56.5755 22.4191 56.5754 22.4306 56.575C22.9172 56.5585 23.404 56.5527 23.8837 56.5572H23.8931C24.4345 56.5572 24.8761 56.1226 24.8813 55.5826C24.8864 55.0394 24.448 54.5949 23.9022 54.5897Z" fill="#546E7A"/>
<path d="M18.5297 54.9479C18.0173 55.0218 17.5054 55.1074 17.0082 55.2024C16.4721 55.3048 16.1212 55.8206 16.2241 56.354C16.3149 56.8249 16.7291 57.1522 17.1935 57.1522C17.2554 57.1522 17.3182 57.1465 17.3812 57.1344C17.8487 57.045 18.3303 56.9644 18.8127 56.895C19.353 56.8173 19.7274 56.3183 19.6494 55.7806C19.5713 55.2429 19.0694 54.8694 18.5297 54.9479Z" fill="#546E7A"/>
<path d="M13.2633 56.1636C12.7624 56.3286 12.2702 56.5073 11.8001 56.695C11.2934 56.8971 11.0473 57.4697 11.2506 57.974C11.4054 58.3584 11.7762 58.5919 12.1682 58.5919C12.2907 58.5919 12.4151 58.5691 12.5357 58.521C12.9681 58.3485 13.422 58.1838 13.8843 58.0315C14.4026 57.8609 14.6835 57.3043 14.5121 56.7885C14.3408 56.2729 13.7821 55.9928 13.2633 56.1636Z" fill="#546E7A"/>
<path d="M39.3068 56.0498C38.8796 56.1251 38.4201 56.1759 37.9413 56.2007C37.3961 56.2291 36.9773 56.6917 37.0056 57.2343C37.0332 57.7595 37.4696 58.1668 37.9918 58.1668C38.0092 58.1668 38.0267 58.1664 38.0441 58.1655C38.6038 58.1363 39.1446 58.0763 39.6513 57.987C40.1889 57.8923 40.5474 57.3818 40.4522 56.8469C40.3573 56.3119 39.8445 55.9545 39.3068 56.0498Z" fill="#546E7A"/>
<path d="M43.373 54.0013C43.0507 54.323 42.7212 54.5982 42.3658 54.8427C41.9168 55.1516 41.8045 55.7644 42.115 56.2114C42.3069 56.4875 42.6152 56.6357 42.9289 56.6357C43.1227 56.6357 43.3186 56.579 43.4902 56.461C43.9386 56.1522 44.3701 55.7923 44.7724 55.3911C45.1579 55.0064 45.1572 54.3835 44.7708 53.9999C44.3843 53.616 43.7586 53.6167 43.373 54.0013Z" fill="#546E7A"/>
<path d="M34.3868 56.0188C33.9413 55.962 33.4678 55.8928 32.9395 55.8071C32.4007 55.7198 31.8929 56.0836 31.8051 56.6198C31.7174 57.156 32.0828 57.6615 32.6217 57.7489C33.1725 57.8383 33.6678 57.9106 34.1359 57.9703C34.1784 57.9756 34.2207 57.9784 34.2626 57.9784C34.7526 57.9784 35.1779 57.6159 35.2418 57.1194C35.311 56.5807 34.9284 56.088 34.3868 56.0188Z" fill="#546E7A"/>
<path d="M29.2669 55.156C28.7012 55.057 28.2104 54.9763 27.766 54.9095C27.2284 54.8287 26.7225 55.1981 26.6412 55.7355C26.5598 56.2727 26.9313 56.7739 27.471 56.8549C27.8992 56.9192 28.3744 56.9974 28.924 57.0936C28.9819 57.1037 29.0397 57.1086 29.0966 57.1086C29.5673 57.1086 29.9843 56.7727 30.0689 56.2954C30.1635 55.7604 29.8044 55.2503 29.2669 55.156Z" fill="#546E7A"/>
<path d="M8.30376 58.4819C8.06602 58.6366 7.8329 58.7973 7.61045 58.9597C7.17029 59.2809 7.07514 59.8966 7.39801 60.3346C7.59173 60.5975 7.89167 60.7367 8.19583 60.7367C8.39865 60.7367 8.60344 60.6746 8.77963 60.5461C8.97375 60.4044 9.17775 60.2638 9.38623 60.1279C9.843 59.8305 9.97109 59.2208 9.67207 58.7662C9.37319 58.3117 8.76026 58.1841 8.30376 58.4819Z" fill="#546E7A"/>
<path d="M46.442 22.0097C50.1658 22.0097 53.1846 19.0052 53.1846 15.2989C53.1846 11.5926 50.1658 8.58813 46.442 8.58813C42.7182 8.58813 39.6994 11.5926 39.6994 15.2989C39.6994 19.0052 42.7182 22.0097 46.442 22.0097Z" fill="#F3F3F3"/>
</g>
<defs>
<clipPath id="clip0_8_2314">
<rect width="67.4733" height="67.1549" fill="white" transform="translate(0.2901 0.577637)"/>
</clipPath>
</defs>
</svg>
