<svg width="15" height="15" viewBox="0 0 15 15" fill="none" xmlns="http://www.w3.org/2000/svg">
<path d="M14.8171 14.7324H0.425781V2.74181C0.425781 1.76227 1.26812 0.968262 2.30729 0.968262H12.9355C13.9746 0.968262 14.817 1.76227 14.817 2.74181L14.8171 14.7324Z" fill="url(#paint0_linear_8_2302)"/>
<path d="M14.8171 14.7324H0.425781V2.74181C0.425781 1.76227 1.26812 0.968262 2.30729 0.968262H12.9355C13.9746 0.968262 14.817 1.76227 14.817 2.74181L14.8171 14.7324Z" fill="url(#paint1_linear_8_2302)"/>
<path d="M0.425781 14.7324V2.74181C0.425781 1.76227 1.26812 0.968262 2.30729 0.968262H12.9355C13.9746 0.968262 14.817 1.76227 14.817 2.74181V14.7324H0.425781Z" fill="url(#paint2_linear_8_2302)"/>
<path d="M12.9356 0.968262H7.62146V14.7324H14.8171V2.74181C14.8171 1.76227 13.9748 0.968262 12.9356 0.968262Z" fill="url(#paint3_linear_8_2302)"/>
<defs>
<linearGradient id="paint0_linear_8_2302" x1="3.02195" y1="4.03421" x2="11.5204" y2="13.05" gradientUnits="userSpaceOnUse">
<stop stop-color="#99E6FC"/>
<stop offset="1" stop-color="#01C0FA"/>
</linearGradient>
<linearGradient id="paint1_linear_8_2302" x1="3.85256" y1="7.85033" x2="-1.26966" y2="7.85033" gradientUnits="userSpaceOnUse">
<stop stop-color="#017BAE" stop-opacity="0"/>
<stop offset="1" stop-color="#017BAE"/>
</linearGradient>
<linearGradient id="paint2_linear_8_2302" x1="7.62144" y1="4.24569" x2="7.62144" y2="-0.653201" gradientUnits="userSpaceOnUse">
<stop stop-color="#017BAE" stop-opacity="0"/>
<stop offset="1" stop-color="#017BAE"/>
</linearGradient>
<linearGradient id="paint3_linear_8_2302" x1="9.33478" y1="7.85033" x2="6.77381" y2="7.85033" gradientUnits="userSpaceOnUse">
<stop stop-color="#017BAE" stop-opacity="0"/>
<stop offset="1" stop-color="#017BAE"/>
</linearGradient>
</defs>
</svg>
