<svg width="24" height="26" viewBox="0 0 24 26" fill="none" xmlns="http://www.w3.org/2000/svg">
<path d="M8 3.3302H5C4.46957 3.3302 3.96086 3.55582 3.58579 3.95743C3.21071 4.35904 3 4.90375 3 5.47171V8.68397M21 8.68397V5.47171C21 4.90375 20.7893 4.35904 20.4142 3.95743C20.0391 3.55582 19.5304 3.3302 19 3.3302H16M16 22.6038H19C19.5304 22.6038 20.0391 22.3782 20.4142 21.9765C20.7893 21.5749 21 21.0302 21 20.4623V17.25M3 17.25V20.4623C3 21.0302 3.21071 21.5749 3.58579 21.9765C3.96086 22.3782 4.46957 22.6038 5 22.6038H8" stroke="#F3F3F3" stroke-width="1.5" stroke-linecap="round" stroke-linejoin="round"/>
</svg>
